<svg id="cta-mobile-background-pattern" class="block lg:hidden absolute inset-0 top-0 left-0 h-full w-full" preserveAspectRatio="xMidYMid slice" viewBox="0 0 390 348" fill="none" xmlns="http://www.w3.org/2000/svg"><g clip-path="url(#clip0_6_119)"><mask id="mask0_6_119" style="mask-type:luminance" maskUnits="userSpaceOnUse" x="0" y="0" width="390" height="348"><path d="M0 347.583L390 347.583L390 0.0220032L0 0.0220032L0 347.583Z" fill="white"/></mask><g mask="url(#mask0_6_119)"><g filter="url(#filter0_f_6_119)"><path d="M458 134.145L79 513.145H106.084L458 161.228V134.145Z" fill="url(#paint0_linear_6_119)"/><path d="M458 134.145L79 513.145H106.084L458 161.228V134.145Z" fill="url(#paint1_linear_6_119)"/></g><g style="mix-blend-mode:multiply"><path d="M424 144.289V13.1445L0 437.145H131.144L424 144.289Z" fill="url(#paint2_linear_6_119)"/></g><g style="mix-blend-mode:multiply"><path d="M513 107.782V0.144531L165 348.145H272.637L513 107.782Z" fill="url(#paint3_linear_6_119)"/></g><g filter="url(#filter1_f_6_119)"><path d="M222 152.145L13.0001 360.145H27.9354L222 167.008V152.145Z" fill="url(#paint4_linear_6_119)"/><path d="M222 152.145L13.0001 360.145H27.9354L222 167.008V152.145Z" fill="url(#paint5_linear_6_119)"/></g><g style="mix-blend-mode:multiply"><path d="M603 180.782V73.1445L255 421.145H362.637L603 180.782Z" fill="url(#paint6_linear_6_119)"/></g><g style="mix-blend-mode:multiply"><path d="M358 -141.629V-337.417L-275 295.583H-79.2115L358 -141.629Z" fill="url(#paint7_linear_6_119)"/></g><g filter="url(#filter2_f_6_119)"><path d="M530 216.521V144.145L297 378.145H369.068L530 216.521Z" fill="url(#paint8_linear_6_119)"/></g></g></g><defs><filter id="filter0_f_6_119" x="58" y="113.145" width="421" height="421" filterUnits="userSpaceOnUse" color-interpolation-filters="sRGB"><feFlood flood-opacity="0" result="BackgroundImageFix"/><feBlend mode="normal" in="SourceGraphic" in2="BackgroundImageFix" result="shape"/><feGaussianBlur stdDeviation="10.5" result="effect1_foregroundBlur_6_119"/></filter><filter id="filter1_f_6_119" x="-7.99988" y="131.145" width="251" height="250" filterUnits="userSpaceOnUse" color-interpolation-filters="sRGB"><feFlood flood-opacity="0" result="BackgroundImageFix"/><feBlend mode="normal" in="SourceGraphic" in2="BackgroundImageFix" result="shape"/><feGaussianBlur stdDeviation="10.5" result="effect1_foregroundBlur_6_119"/></filter><filter id="filter2_f_6_119" x="246" y="93.145" width="335" height="336" filterUnits="userSpaceOnUse" color-interpolation-filters="sRGB"><feFlood flood-opacity="0" result="BackgroundImageFix"/><feBlend mode="normal" in="SourceGraphic" in2="BackgroundImageFix" result="shape"/><feGaussianBlur stdDeviation="25.5" result="effect1_foregroundBlur_6_119"/></filter><linearGradient id="paint0_linear_6_119" x1="215.276" y1="446.121" x2="575.248" y2="195.854" gradientUnits="userSpaceOnUse"><stop stop-color="white"/><stop offset="1" stop-color="#4B4B4B" stop-opacity="0"/></linearGradient><linearGradient id="paint1_linear_6_119" x1="-148.902" y1="574.468" x2="387.37" y2="15.7388" gradientUnits="userSpaceOnUse"><stop stop-color="#00E9EA"/><stop offset="1" stop-color="#1F80F0"/></linearGradient><linearGradient id="paint2_linear_6_119" x1="-185.147" y1="830.051" x2="296.8" y2="259.771" gradientUnits="userSpaceOnUse"><stop stop-color="#1F80F0"/><stop offset="1" stop-color="#0059BF" stop-opacity="0"/></linearGradient><linearGradient id="paint3_linear_6_119" x1="13.0401" y1="670.625" x2="408.6" y2="202.565" gradientUnits="userSpaceOnUse"><stop stop-color="#1F80F0"/><stop offset="1" stop-color="#0059BF" stop-opacity="0"/></linearGradient><linearGradient id="paint4_linear_6_119" x1="88.1494" y1="323.361" x2="286.035" y2="185.122" gradientUnits="userSpaceOnUse"><stop stop-color="white"/><stop offset="1" stop-color="#4B4B4B" stop-opacity="0"/></linearGradient><linearGradient id="paint5_linear_6_119" x1="-112.676" y1="393.8" x2="181.575" y2="85.7519" gradientUnits="userSpaceOnUse"><stop stop-color="#00E9EA"/><stop offset="1" stop-color="#1F80F0"/></linearGradient><linearGradient id="paint6_linear_6_119" x1="103.04" y1="743.625" x2="498.6" y2="275.565" gradientUnits="userSpaceOnUse"><stop stop-color="#1F80F0"/><stop offset="1" stop-color="#0059BF" stop-opacity="0"/></linearGradient><linearGradient id="paint7_linear_6_119" x1="-551.41" y1="882.163" x2="168.1" y2="30.7781" gradientUnits="userSpaceOnUse"><stop stop-color="#1F80F0"/><stop offset="1" stop-color="#0059BF" stop-opacity="0"/></linearGradient><linearGradient id="paint8_linear_6_119" x1="254.636" y1="397.227" x2="525.366" y2="167.188" gradientUnits="userSpaceOnUse"><stop stop-color="#00E9EA"/><stop offset="1" stop-color="#1F80F0" stop-opacity="0.49"/></linearGradient><clipPath id="clip0_6_119"><rect width="390" height="348" fill="white"/></clipPath></defs></svg>