<svg width="1920" height="929" viewBox="0 0 1920 929" fill="none" xmlns="http://www.w3.org/2000/svg">
<g style="mix-blend-mode:multiply">
<path d="M668 23.4954V-382L-643 929H-237.504L668 23.4954Z" fill="url(#paint0_linear_4_5)"/>
</g>
<g style="mix-blend-mode:multiply">
<path d="M1195 -226.405V-592L13 590H378.596L1195 -226.405Z" fill="url(#paint1_linear_4_5)"/>
</g>
<g style="mix-blend-mode:multiply">
<path d="M1011 -629.405V-995L-171 187H194.596L1011 -629.405Z" fill="url(#paint2_linear_4_5)"/>
</g>
<g style="mix-blend-mode:multiply">
<path d="M313 -161.212V-357L-320 276H-124.211L313 -161.212Z" fill="url(#paint3_linear_4_5)"/>
</g>
<g style="mix-blend-mode:multiply">
<path d="M1315 316.788V121L682 754H877.789L1315 316.788Z" fill="url(#paint4_linear_4_5)"/>
</g>
<g style="mix-blend-mode:multiply">
<path d="M1220 -28.2093V-121L920 179H1012.79L1220 -28.2093Z" fill="url(#paint5_linear_4_5)"/>
</g>
<g style="mix-blend-mode:multiply">
<path d="M1968 388.791V296L1668 596H1760.79L1968 388.791Z" fill="url(#paint6_linear_4_5)"/>
</g>
<defs>
<linearGradient id="paint0_linear_4_5" x1="-788.962" y1="1499.58" x2="691.884" y2="18.7308" gradientUnits="userSpaceOnUse">
<stop stop-color="#1F80F0"/>
<stop offset="1" stop-color="#0059BF" stop-opacity="0"/>
</linearGradient>
<linearGradient id="paint1_linear_4_5" x1="945.5" y1="1007" x2="375" y2="333.5" gradientUnits="userSpaceOnUse">
<stop stop-color="#1F80F0"/>
<stop offset="1" stop-color="#0059BF" stop-opacity="0"/>
</linearGradient>
<linearGradient id="paint2_linear_4_5" x1="761.5" y1="604" x2="191" y2="-69.4998" gradientUnits="userSpaceOnUse">
<stop stop-color="#1F80F0"/>
<stop offset="1" stop-color="#0059BF" stop-opacity="0"/>
</linearGradient>
<linearGradient id="paint3_linear_4_5" x1="-596.41" y1="862.58" x2="123.1" y2="11.195" gradientUnits="userSpaceOnUse">
<stop stop-color="#1F80F0"/>
<stop offset="1" stop-color="#0059BF" stop-opacity="0"/>
</linearGradient>
<linearGradient id="paint4_linear_4_5" x1="405.59" y1="1340.58" x2="1125.1" y2="489.195" gradientUnits="userSpaceOnUse">
<stop stop-color="#1F80F0"/>
<stop offset="1" stop-color="#0059BF" stop-opacity="0"/>
</linearGradient>
<linearGradient id="paint5_linear_4_5" x1="789" y1="457" x2="1130" y2="53.5" gradientUnits="userSpaceOnUse">
<stop stop-color="#1F80F0"/>
<stop offset="1" stop-color="#0059BF" stop-opacity="0"/>
</linearGradient>
<linearGradient id="paint6_linear_4_5" x1="1537" y1="874" x2="1878" y2="470.5" gradientUnits="userSpaceOnUse">
<stop stop-color="#1F80F0"/>
<stop offset="1" stop-color="#0059BF" stop-opacity="0"/>
</linearGradient>
</defs>
</svg>
